# xmcd
#
# Track frame offsets:
#	150
#	62721
#	129587
#	158654
#	206133
#	243525
#	268752
#	320495
#
# Disc length: 4606 seconds
#
# Revision: 1
# Processed by: cddbd v1.5PL3 Copyright (c) Steve Scherf et al.
# Submitted via: audiograbber 1.82.02
#
DISCID=7511fc08
DTITLE=Derek and The Dominos - Live at Fillmore '70, CD 1/2
DYEAR=1970
DGENRE=Blues
TTITLE0=Got to get better in a little while
TTITLE1=Why does love got to be so sad
TTITLE2=Key to the highway
TTITLE3=Blues Power
TTITLE4=Have you ever loved a woman
TTITLE5=Bottle of red wine
TTITLE6=Tell the truth
TTITLE7=Nobody knows you (When you're down and out)
EXTD=Bootleg
EXTT0=
EXTT1=
EXTT2=
EXTT3=
EXTT4=
EXTT5=
EXTT6=
EXTT7=
PLAYORDER=
